<svg width="96" height="96" xmlns="http://www.w3.org/2000/svg" xmlns:xlink="http://www.w3.org/1999/xlink" xml:space="preserve" overflow="hidden"><g transform="translate(-517 -205)"><path d="M591.005 226 588.859 226 584.911 218.1 546.205 215.893 541.151 226 539.005 226 539.005 240 542.951 240 547.951 291 582.392 291 587.392 240 591.005 240ZM545.005 231 585.005 231 585.005 234 545.005 234ZM581.1 223.9 582.651 227 547.359 227 549.805 222.107ZM553.392 285 552.313 274 578.03 274 576.951 285ZM580.383 250 549.96 250 548.98 240 581.363 240Z" fill="#6497B1"/></g></svg>