<svg width="96" height="96" xmlns="http://www.w3.org/2000/svg" xmlns:xlink="http://www.w3.org/1999/xlink" xml:space="preserve" overflow="hidden"><g transform="translate(-391 -200)"><path d="M417 252C417 239.9 426.9 230 439 230 451.1 230 461 239.9 461 252 461 264.1 451.1 274 439 274 426.9 274 417 264.1 417 252ZM441 224.1 441 220 445 220C446.1 220 447 219.1 447 218 447 216.9 446.1 216 445 216L433 216C431.9 216 431 216.9 431 218 431 219.1 431.9 220 433 220L437 220 437 224.1C422.5 225.1 411 237.2 411 252 411 259.6 414 266.5 419 271.6L415.2 279.1C414.7 280.1 415.1 281.3 416.1 281.8 416.4 281.9 416.7 282 417 282 417.7 282 418.4 281.6 418.8 280.9L422.1 274.3C426.8 277.9 432.6 280 439 280 445.4 280 451.2 277.9 455.9 274.3L459.2 280.9C459.6 281.6 460.3 282 461 282 461.3 282 461.6 281.9 461.9 281.8 462.9 281.3 463.3 280.1 462.8 279.1L459 271.6C463.9 266.6 467 259.6 467 252 467 237.2 455.5 225.1 441 224.1Z" fill="#011F4B"/><path d="M437 250 423 250 423 254 439 254C440.1 254 441 253.1 441 252L441 236 437 236 437 250Z" fill="#011F4B"/><path d="M471.2 224.2 462.9 215.9C461.3 214.3 458.8 214.3 457.2 215.9L452 221 466 235 471.2 229.8C472.7 228.3 472.7 225.7 471.2 224.2Z" fill="#011F4B"/><path d="M426 221 420.8 215.8C419.2 214.2 416.7 214.2 415.1 215.8L406.8 224.1C405.2 225.7 405.2 228.2 406.8 229.8L412 235 426 221Z" fill="#011F4B"/></g></svg>