<svg width="96" height="96" xmlns="http://www.w3.org/2000/svg" xmlns:xlink="http://www.w3.org/1999/xlink" xml:space="preserve" overflow="hidden"><g transform="translate(-640 -200)"><path d="M669.988 215.989 705.968 215.989 705.968 222.554 711.968 216.554 711.968 205.994C711.965 204.891 711.071 203.997 709.968 203.994L665.99 203.994C664.885 203.994 663.99 204.889 663.99 205.994L663.99 264.53 669.99 258.53ZM683.98 207.989 691.98 207.989C693.085 207.989 693.98 208.884 693.98 209.989 693.98 211.094 693.085 211.989 691.98 211.989L683.98 211.989C682.875 211.989 681.98 211.094 681.98 209.989 681.98 208.884 682.875 207.989 683.98 207.989Z" fill="#011F4B"/><path d="M730.127 211.121 725.885 206.879 645.885 286.879 650.127 291.121 663.991 277.257 663.991 289.948C663.991 291.053 664.886 291.948 665.991 291.948L709.966 291.948C711.071 291.948 711.966 291.053 711.966 289.948L711.966 229.284ZM705.968 279.954 669.988 279.954 669.988 271.26 705.968 235.28Z" fill="#011F4B"/></g></svg>